<?xml version="1.0" encoding="UTF-8"?>
<svg version="1.1" xmlns="http://www.w3.org/2000/svg" width="512" height="512">
<path d="M0 0 C2.4893836 0.54006859 4.65362553 0.44937447 7.16870117 0.10375977 C7.95760742 0.00450195 8.74651367 -0.09475586 9.55932617 -0.19702148 C11.12711598 -0.45399366 12.68866165 -0.75262957 14.24047852 -1.09301758 C33.96413279 -4.70692324 54.36990322 -0.82244493 70.91870117 10.41625977 C86.93121103 22.51798651 97.25426631 38.67792608 100.91870117 58.41625977 C101.28824847 63.18937643 101.27091926 67.92810013 101.21166992 72.71313477 C101.20742508 74.02791809 101.20318024 75.34270142 101.19880676 76.69732666 C101.18749168 80.14971852 101.15814441 83.60171623 101.12469482 87.05395508 C101.09370155 90.59393897 101.08007389 94.13399005 101.06518555 97.67407227 C101.0348592 104.58847994 100.97610894 111.50181313 100.91870117 118.41625977 C119.72870117 118.41625977 138.53870117 118.41625977 157.91870117 118.41625977 C159.1665308 142.89154653 159.1665308 142.89154653 159.69604492 153.37719727 C160.05644662 160.51368024 160.41748747 167.65012663 160.7824707 174.78637695 C161.07690046 180.54396306 161.36835015 186.30169319 161.65779114 192.05953217 C161.76836976 194.24904442 161.87999654 196.43850401 161.99272156 198.6279068 C162.15121767 201.70989136 162.30588216 204.79204729 162.4597168 207.87426758 C162.52984734 209.21216339 162.52984734 209.21216339 162.60139465 210.5770874 C162.92692464 217.21532769 162.91870117 223.74667026 162.91870117 230.41625977 C203.50870117 230.41625977 244.09870117 230.41625977 285.91870117 230.41625977 C289.6803177 278.79333517 289.6803177 278.79333517 291.25073242 299.09790039 C292.33423425 313.10634842 293.41876298 327.11471147 294.51000977 341.12255859 C295.30482529 351.32531169 296.09610846 361.52833163 296.88320684 371.73168308 C297.29982719 377.13084683 297.71817729 382.52986361 298.14076233 387.92856407 C298.53907602 393.01790673 298.93263837 398.10759531 299.32267952 403.19757843 C299.4660609 405.05798231 299.61112498 406.91825746 299.75806999 408.77838326 C299.95979229 411.33525236 300.15522162 413.8925335 300.34924316 416.44999695 C300.4367895 417.53129892 300.4367895 417.53129892 300.52610445 418.63444537 C301.01829691 425.27676558 300.91870117 431.68895193 300.91870117 438.41625977 C147.79870117 438.41625977 -5.32129883 438.41625977 -163.08129883 438.41625977 C-163.08129883 415.44275928 -163.08129883 415.44275928 -162.51184082 404.62200928 C-162.45058753 403.37985507 -162.38933425 402.13770087 -162.3262248 400.85790563 C-162.15879137 397.48241839 -161.98698868 394.10721014 -161.81315398 390.73205042 C-161.62542901 387.06520318 -161.44360195 383.39806239 -161.26100159 379.73095703 C-160.94504566 373.40143137 -160.62548359 367.07209643 -160.30335999 360.74288177 C-159.83764822 351.59228297 -159.37754931 342.44140847 -158.91875094 333.29046074 C-158.17394728 318.43798963 -157.42470346 303.58574607 -156.67260742 288.73364258 C-155.94270901 274.31969832 -155.21493901 259.90564916 -154.48999023 245.49145508 C-154.4451853 244.60061087 -154.40038037 243.70976667 -154.35421771 242.79192719 C-154.12942217 238.32212023 -153.90466805 233.8523112 -153.6799345 229.38250113 C-151.82014072 192.39342819 -149.95228707 155.40476849 -148.08129883 118.41625977 C-129.27129883 118.41625977 -110.46129883 118.41625977 -91.08129883 118.41625977 C-91.12770508 114.2590332 -91.17411133 110.10180664 -91.22192383 105.81860352 C-91.24772777 102.46072106 -91.26939036 99.10286739 -91.28829956 95.74494171 C-91.30924278 92.22395756 -91.33712701 88.70337157 -91.38305664 85.18261719 C-91.76548936 55.04780073 -91.76548936 55.04780073 -87.08129883 43.41625977 C-86.78368652 42.64741455 -86.48607422 41.87856934 -86.17944336 41.08642578 C-78.73851953 23.66954704 -64.0202918 10.20998027 -46.77270508 2.89282227 C-32.26532531 -2.91012964 -15.22463828 -3.81942742 0 0 Z M-53.08129883 26.41625977 C-53.78899414 26.91641602 -54.49668945 27.41657227 -55.22583008 27.93188477 C-65.65804148 36.08012089 -72.63884727 49.52811771 -74.36070251 62.52529907 C-75.05525009 68.99941984 -75.21259899 75.38520284 -75.17895508 81.89282227 C-75.17754013 82.94408295 -75.17612518 83.99534363 -75.17466736 85.07846069 C-75.1691197 88.39942404 -75.15657725 91.72031718 -75.14379883 95.04125977 C-75.13877705 97.30818587 -75.13421534 99.57511304 -75.13012695 101.84204102 C-75.1200231 107.36682868 -75.10043783 112.89146666 -75.08129883 118.41625977 C-64.52129883 118.41625977 -53.96129883 118.41625977 -43.08129883 118.41625977 C-43.05551758 114.2590332 -43.02973633 110.10180664 -43.00317383 105.81860352 C-42.97139977 102.460663 -42.93574414 99.10281249 -42.89750671 95.74494171 C-42.85846004 92.22414921 -42.82592395 88.70359816 -42.81030273 85.18261719 C-42.6662713 54.9861351 -42.6662713 54.9861351 -38.08129883 43.41625977 C-37.63584717 42.26299194 -37.63584717 42.26299194 -37.18139648 41.08642578 C-33.42026163 32.30291788 -27.8666141 25.34490956 -21.20629883 18.61157227 C-18.96538106 16.80572762 -18.96538106 16.80572762 -19.08129883 15.41625977 C-32.02469512 14.36442621 -42.77938086 18.84750371 -53.08129883 26.41625977 Z M28.91870117 15.41625977 C29.74370117 16.34438477 30.56870117 17.27250977 31.41870117 18.22875977 C45.46081588 34.75473911 52.31927613 50.9625838 52.43041992 72.71313477 C52.45734673 74.68530975 52.45734673 74.68530975 52.4848175 76.69732666 C52.53179347 80.14948674 52.56193813 83.60158399 52.58825684 87.05395508 C52.61833105 90.59411962 52.66461226 94.13407258 52.7097168 97.67407227 C52.79664815 104.58814762 52.85704023 111.50172929 52.91870117 118.41625977 C63.47870117 118.41625977 74.03870117 118.41625977 84.91870117 118.41625977 C84.96492907 111.83648887 85.00465875 105.25729489 85.02856445 98.67749023 C85.03854364 96.4450488 85.05213177 94.21262016 85.06958008 91.98022461 C85.24191435 69.34361133 84.89368058 49.20309786 68.91870117 31.41625977 C59.29376578 22.05956028 46.99794612 15.36733397 33.41870117 15.29125977 C31.91845601 15.32289144 30.41826002 15.36094817 28.91870117 15.41625977 Z M-11.28442383 31.44360352 C-24.53441278 46.03649676 -27.27776121 62.86447245 -27.17895508 81.89282227 C-27.177948 82.82634521 -27.17694092 83.75986816 -27.17590332 84.72167969 C-27.17072742 88.16155247 -27.15676684 91.60140754 -27.14379883 95.04125977 C-27.12317383 102.75500977 -27.10254883 110.46875977 -27.08129883 118.41625977 C-5.96129883 118.41625977 15.15870117 118.41625977 36.91870117 118.41625977 C36.95995117 110.78500977 37.00120117 103.15375977 37.04370117 95.29125977 C37.06190918 92.91277832 37.08011719 90.53429687 37.09887695 88.08374023 C37.19548206 66.75852066 35.94103558 48.02863589 20.91870117 31.41625977 C7.7569939 19.29106139 1.56684261 19.61770408 -11.28442383 31.44360352 Z " fill="#EA423F" transform="translate(187.081298828125,33.583740234375)"/>
<path d="M0 0 C79.53 0 159.06 0 241 0 C243.475 31.906875 245.95 63.81375 248.5 96.6875 C249.28310547 106.74951904 250.06621094 116.81153809 250.87304688 127.1784668 C251.82519531 139.49768066 251.82519531 139.49768066 252.2701416 145.27107239 C252.58020807 149.28986058 252.89306476 153.30842091 253.2076416 157.32685852 C253.60968913 162.46384803 254.00688397 167.60119178 254.40067387 172.73882067 C254.54546373 174.6172535 254.69191065 176.49555958 254.84027004 178.37371385 C255.04168898 180.92671984 255.23682499 183.48013679 255.43054199 186.03373718 C255.48888969 186.75439267 255.5472374 187.47504816 255.60735321 188.21754169 C256.09956899 194.86007787 256 201.27247877 256 208 C166.24 208 76.48 208 -16 208 C-16 201.7199818 -15.93113211 195.64389174 -15.43727112 189.41468811 C-15.3767234 188.61196785 -15.31617568 187.80924759 -15.25379318 186.98220247 C-15.05244428 184.32516685 -14.84570222 181.66858043 -14.63891602 179.01196289 C-14.49244103 177.09422171 -14.34629088 175.1764557 -14.20043945 173.25866699 C-13.80519358 168.07506037 -13.40514397 162.89183504 -13.00399518 157.7086823 C-12.5844297 152.27971418 -12.16860709 146.85045912 -11.75218201 141.42124939 C-11.05295155 132.31309025 -10.35050641 123.20518316 -9.64624023 114.09741211 C-8.83160337 103.56166127 -8.02250023 93.02549613 -7.21623665 82.48910147 C-6.52349883 73.4381797 -5.82779044 64.38748986 -5.12958282 55.33698839 C-4.71269322 49.93302645 -4.29684212 44.52898998 -3.8836689 39.12474251 C-3.49560658 34.05111435 -3.10382409 28.97778709 -2.70912933 23.90467072 C-2.56469636 22.04029653 -2.42157383 20.17582031 -2.27983665 18.31123924 C-2.08665489 15.77268013 -1.88879769 13.23452833 -1.68971252 10.69642639 C-1.63426114 9.9532512 -1.57880976 9.210076 -1.52167803 8.44438034 C-1.28171022 5.4401662 -0.95782341 2.87347023 0 0 Z " fill="#F6AF30" transform="translate(232,264)"/>
<path d="M0 0 C21.45 0 42.9 0 65 0 C66.9610559 25.19991605 68.91794474 50.40014444 70.86727142 75.60097027 C71.77257376 87.3029586 72.67973199 99.00479745 73.59130859 110.70629883 C74.38612412 120.90905192 75.17740729 131.11207187 75.96450567 141.31542331 C76.38112602 146.71458707 76.79947612 152.11360385 77.22206116 157.51230431 C77.62037485 162.60164696 78.0139372 167.69133554 78.40397835 172.78131866 C78.54735973 174.64172254 78.6924238 176.50199769 78.83936882 178.36212349 C79.04109112 180.9189926 79.23652045 183.47627373 79.43054199 186.03373718 C79.48890622 186.75460516 79.54727044 187.47547314 79.60740328 188.2181856 C80.09959574 194.86050582 80 201.27269217 80 208 C58.88 208 37.76 208 16 208 C15.23568265 203.4140959 14.69902744 198.96084449 14.37084961 194.34033203 C14.31511748 193.58757303 14.25938536 192.83481403 14.20196438 192.05924416 C14.0162136 189.54228018 13.83434199 187.02505038 13.65234375 184.5078125 C13.51888829 182.69197545 13.38514233 180.87615974 13.25112915 179.06036377 C12.96230213 175.14131863 12.67501515 171.22216493 12.38894653 167.30291748 C11.61756406 156.73790954 10.83621182 146.17363676 10.0546875 135.609375 C9.9731222 134.50572475 9.89155689 133.40207451 9.80751991 132.26498032 C8.48857348 114.42945233 7.13398529 96.59682473 5.7578125 78.765625 C5.66559229 77.57034557 5.57337208 76.37506615 5.47835732 75.14356613 C4.57295833 63.41302765 3.66439775 51.6827366 2.7526474 39.95269012 C2.41486728 35.60354175 2.07822412 31.25430582 1.74180222 26.90505219 C1.50934567 23.90611195 1.2751631 20.90730975 1.04092407 17.9085083 C0.9016193 16.1087719 0.76240286 14.30902866 0.62329102 12.50927734 C0.52755499 11.29334239 0.52755499 11.29334239 0.42988491 10.05284309 C0.17129584 6.68594923 0 3.37946283 0 0 Z " fill="#E7A42D" transform="translate(408,264)"/>
<path d="M0 0 C2.4893836 0.54006859 4.65362553 0.44937447 7.16870117 0.10375977 C7.95760742 0.00450195 8.74651367 -0.09475586 9.55932617 -0.19702148 C11.12711598 -0.45399366 12.68866165 -0.75262957 14.24047852 -1.09301758 C33.96413279 -4.70692324 54.36990322 -0.82244493 70.91870117 10.41625977 C86.93121103 22.51798651 97.25426631 38.67792608 100.91870117 58.41625977 C101.28824847 63.18937643 101.27091926 67.92810013 101.21166992 72.71313477 C101.20742508 74.02791809 101.20318024 75.34270142 101.19880676 76.69732666 C101.18749168 80.14971852 101.15814441 83.60171623 101.12469482 87.05395508 C101.09370154 90.59393994 101.08023971 94.13399009 101.06518555 97.67407227 C101.03325777 104.58831048 100.98060368 111.50222548 100.91870117 118.41625977 C95.63870117 118.41625977 90.35870117 118.41625977 84.91870117 118.41625977 C84.89888184 117.0355127 84.8790625 115.65476562 84.85864258 114.23217773 C84.78183908 109.04711469 84.69324503 103.86230536 84.60131836 98.67749023 C84.56333426 96.44511979 84.5284317 94.21269447 84.49682617 91.98022461 C84.07463385 59.22929634 84.07463385 59.22929634 67.91870117 31.41625977 C58.8662922 23.07285066 46.81464682 16.16778998 34.16870117 16.35375977 C32.96987305 16.36729492 32.96987305 16.36729492 31.74682617 16.38110352 C31.14354492 16.39270508 30.54026367 16.40430664 29.91870117 16.41625977 C30.66313477 17.09108398 30.66313477 17.09108398 31.42260742 17.77954102 C43.7150804 29.41890347 52.43468634 45.98859716 53.19866943 63.08175659 C53.35213328 68.7125106 53.3365337 74.34251698 53.31713867 79.97485352 C53.31916287 82.05322878 53.32207719 84.13160335 53.32583618 86.2099762 C53.33023634 90.54272293 53.32389863 94.87528293 53.30981445 99.20800781 C53.29264885 104.75852624 53.30262492 110.30861175 53.32053185 115.85911465 C53.33136834 120.14078542 53.32792523 124.42235332 53.32014847 128.70402718 C53.31814998 130.75134394 53.3205934 132.79867009 53.32758713 134.84597588 C53.33520757 137.70095537 53.32359232 140.55522932 53.30688477 143.41015625 C53.31295746 144.25229675 53.31903015 145.09443726 53.32528687 145.96209717 C53.27508452 150.59371141 52.92906901 153.65575347 49.91870117 157.41625977 C47.10954643 158.82083714 45.03059583 158.66521134 41.91870117 158.41625977 C38.78278547 156.63641572 38.07767382 155.8931777 36.91870117 152.41625977 C36.8091762 149.85927247 36.7542236 147.32809241 36.74511719 144.77050781 C36.73843018 143.99276505 36.73174316 143.21502228 36.72485352 142.41371155 C36.71080052 140.72279617 36.69890725 139.03186179 36.68890572 137.34091759 C36.6724519 134.65256884 36.64920511 131.96435744 36.62400818 129.27607727 C36.55340442 121.63138752 36.49354118 113.98663758 36.44189453 106.34179688 C36.40980961 101.66332242 36.36844936 96.98499989 36.32169914 92.30665016 C36.30583682 90.53474522 36.29344401 88.76280527 36.28479195 86.99085045 C36.18267737 66.35214119 34.71106194 47.33797742 19.91870117 31.41625977 C12.74798739 24.53952537 12.74798739 24.53952537 3.91870117 21.41625977 C1.6335644 22.5920775 -0.26460658 23.74226534 -2.33129883 25.22875977 C-2.90759033 25.63892334 -3.48388184 26.04908691 -4.07763672 26.47167969 C-15.04297947 34.58157649 -22.69456426 46.96375583 -25.08129883 60.41625977 C-25.99011939 67.56882448 -26.27711622 74.68939108 -26.39770508 81.89282227 C-26.42887672 83.46971329 -26.42887672 83.46971329 -26.4606781 85.07846069 C-26.52547119 88.39933453 -26.58472811 91.72027972 -26.64379883 95.04125977 C-26.68705104 97.30819389 -26.73066733 99.5751211 -26.7746582 101.84204102 C-26.88107936 107.3667096 -26.98253942 112.89144912 -27.08129883 118.41625977 C-32.36129883 118.41625977 -37.64129883 118.41625977 -43.08129883 118.41625977 C-43.17240902 110.85236146 -43.24547476 103.28867384 -43.28854752 95.72435665 C-43.30924177 92.21023272 -43.33721652 88.69651019 -43.38305664 85.18261719 C-43.76548936 55.04780073 -43.76548936 55.04780073 -39.08129883 43.41625977 C-38.78368652 42.64741455 -38.48607422 41.87856934 -38.17944336 41.08642578 C-34.01517445 31.33917286 -27.54302305 23.78196915 -20.08129883 16.41625977 C-32.688023 15.5615666 -43.02299863 20.09965752 -53.08129883 27.41625977 C-53.71551758 27.84293945 -54.34973633 28.26961914 -55.00317383 28.70922852 C-64.69957768 35.93705249 -70.80086882 48.85122187 -73.08129883 60.41625977 C-74.04032552 67.70595373 -74.24667136 74.94739279 -74.28662109 82.29174805 C-74.30147049 84.00569008 -74.30147049 84.00569008 -74.31661987 85.7542572 C-74.3479879 89.49834178 -74.37289381 93.242439 -74.39770508 96.98657227 C-74.41829597 99.595452 -74.43929298 102.20432856 -74.4606781 104.8132019 C-74.51036326 110.95751499 -74.55539056 117.10185282 -74.59870046 123.24621379 C-74.64828104 130.24755074 -74.70312117 137.24884349 -74.75838006 144.25013757 C-74.87182837 158.63880338 -74.9787466 173.02751238 -75.08129883 187.41625977 C-76.81673177 186.35424805 -78.55216471 185.29223633 -80.28759766 184.23022461 C-82.18030946 183.151864 -82.18030946 183.151864 -84.76879883 184.04125977 C-85.53192383 184.49500977 -86.29504883 184.94875977 -87.08129883 185.41625977 C-88.41122348 186.08970066 -89.74404742 186.75748749 -91.08129883 187.41625977 C-91.175094 170.85584749 -91.24544921 154.2955225 -91.28854752 137.7349081 C-91.30909829 130.04404716 -91.33707399 122.35335208 -91.38305664 114.66259766 C-91.42315552 107.95267667 -91.4487859 101.2428759 -91.45765281 94.5328384 C-91.46282897 90.98590223 -91.47483442 87.43930974 -91.50421906 83.89248466 C-91.73118223 55.3949542 -91.73118223 55.3949542 -87.08129883 43.41625977 C-86.78619919 42.65013367 -86.49109955 41.88400757 -86.1870575 41.09466553 C-78.01769957 22.06381279 -61.94114622 8.96019872 -43.08129883 1.41625977 C-30.26288731 -3.6535748 -13.2637914 -3.32750687 0 0 Z " fill="#E8EDF1" transform="translate(187.081298828125,33.583740234375)"/>
<path d="M0 0 C21.45 0 42.9 0 65 0 C66.24782962 24.47528676 66.24782962 24.47528676 66.77734375 34.9609375 C67.13774545 42.09742048 67.4987863 49.23386686 67.86376953 56.37011719 C68.15819929 62.12770329 68.44964898 67.88543342 68.73908997 73.6432724 C68.84966859 75.83278465 68.96129537 78.02224424 69.07402039 80.21164703 C69.2325165 83.29363159 69.38718099 86.37578753 69.54101562 89.45800781 C69.61114616 90.79590363 69.61114616 90.79590363 69.68269348 92.16082764 C70.00822347 98.79906792 70 105.3304105 70 112 C48.55 112 27.1 112 5 112 C2.99626324 74.6576331 1.2990834 37.37363006 0 0 Z " fill="#D0322F" transform="translate(280,152)"/>
<path d="M0 0 C4.06500089 0.84687519 5.40462846 2.42122213 8 5.625 C8.61231995 8.89910889 8.61231995 8.89910889 8.59594727 12.65917969 C8.60203506 13.69197556 8.60203506 13.69197556 8.60824585 14.74563599 C8.61374842 16.2346473 8.6077956 17.72373613 8.59158516 19.21266937 C8.56608303 21.57683933 8.57098969 23.93927235 8.58348083 26.30352783 C8.60420573 31.32754375 8.58458448 36.3510198 8.5625 41.375 C8.54133211 47.18642263 8.53697594 52.99728148 8.56300163 58.80869293 C8.56633855 61.12488608 8.54521972 63.43997884 8.52259827 65.75604248 C8.50498946 74.69248524 9.06560104 81.93970184 14.96484375 88.96484375 C15.61582031 89.49207031 16.26679688 90.01929688 16.9375 90.5625 C17.91009766 91.38041016 17.91009766 91.38041016 18.90234375 92.21484375 C25.19917537 96.44790933 31.48495213 95.95782043 38.8125 95.9375 C40.53823242 95.96166992 40.53823242 95.96166992 42.29882812 95.98632812 C51.26274024 95.99146504 58.6631675 94.93688761 65.33763123 88.45916748 C71.81281492 81.31480123 71.54407631 72.58241949 71.45528984 63.49214935 C71.43319199 61.12890875 71.43718538 58.76693281 71.44776917 56.40362549 C71.46931093 50.54237131 71.45203436 44.68140986 71.42626953 38.82019043 C71.40485535 33.848531 71.40291901 28.87768966 71.42918587 23.90604401 C71.43352647 21.58288675 71.40894284 19.26116625 71.38365173 16.93817139 C71.3889227 15.51183435 71.3956453 14.08550169 71.40405273 12.65917969 C71.39594826 10.79794464 71.39594826 10.79794464 71.38768005 8.89910889 C72.17053431 4.71314353 73.7041053 3.23587795 77 0.625 C80 0 80 0 83 0.625 C86.27438985 3.22590059 87.82391999 4.71481917 88.62818909 8.87219238 C88.62915085 10.10095093 88.63011261 11.32970947 88.63110352 12.59570312 C88.63825882 13.27780853 88.64541412 13.95991394 88.65278625 14.66268921 C88.66965008 16.91123126 88.65027126 19.15777052 88.62890625 21.40625 C88.62973594 22.98222009 88.63219911 24.55819008 88.63621521 26.13415527 C88.63907261 29.43963643 88.62439229 32.74443992 88.59692383 36.04980469 C88.56306436 40.25141067 88.56878432 44.45178762 88.5875864 48.65345001 C88.59825438 51.91212872 88.58912712 55.17053082 88.57420158 58.42918396 C88.56907552 59.97585727 88.56943252 61.52256021 88.57574654 63.06922913 C88.61252207 77.50654117 86.46239841 90.79390789 76.1171875 101.58984375 C65.68811104 111.26230094 54.52574376 112.9794595 40.6875 112.9375 C39.63626953 112.95361328 38.58503906 112.96972656 37.50195312 112.98632812 C24.75253308 112.99416428 13.46946933 110.24119076 3.77734375 101.65625 C-4.61714372 92.99502181 -8.07104501 82.39589471 -8.19287109 70.52734375 C-8.20104858 69.832388 -8.20922607 69.13743225 -8.21765137 68.42141724 C-8.24234712 66.13512 -8.25897502 63.8488839 -8.2734375 61.5625 C-8.27876118 60.77898163 -8.28408485 59.99546326 -8.28956985 59.1882019 C-8.31622485 55.04572531 -8.33562924 50.90327815 -8.35009766 46.76074219 C-8.36346476 43.33664401 -8.39137813 39.91313785 -8.43212891 36.48925781 C-8.48142237 32.34668522 -8.50621303 28.20465144 -8.51332474 24.0617981 C-8.52003599 22.48611558 -8.53525501 20.91044505 -8.55921555 19.33493042 C-8.59084943 17.13019993 -8.59090891 14.92755423 -8.58349609 12.72265625 C-8.59158295 11.46976807 -8.5996698 10.21687988 -8.60800171 8.92602539 C-7.67550434 3.86321481 -5.05433164 1.05298576 0 0 Z " fill="#E9EDF0" transform="translate(280,303.375)"/>
<path d="M0 0 C2.5887919 1.25335 4.86252781 2.63658532 7.22705078 4.27124023 C8.06365234 4.84680664 8.90025391 5.42237305 9.76220703 6.01538086 C10.62201172 6.61415039 11.48181641 7.21291992 12.36767578 7.82983398 C13.68058594 8.73378906 13.68058594 8.73378906 15.02001953 9.65600586 C21.44198264 14.09164085 21.44198264 14.09164085 22.61767578 15.26733398 C22.7117272 17.26165128 22.73510828 19.25932941 22.73120117 21.25585938 C22.73112564 22.53711197 22.73105011 23.81836456 22.73097229 25.13844299 C22.72586488 26.54729246 22.72064887 27.95614154 22.71533203 29.36499023 C22.7134678 30.79845633 22.71204392 32.23192306 22.71104431 33.66539001 C22.7072195 37.44493355 22.69738955 41.22443888 22.68634033 45.00396729 C22.67433058 49.5352118 22.66972379 54.06646906 22.66388702 58.59772491 C22.65417776 65.48762121 22.63502098 72.37743361 22.61767578 79.26733398 C6.77767578 79.26733398 -9.06232422 79.26733398 -25.38232422 79.26733398 C-25.82352112 63.61598527 -25.82352112 63.61598527 -25.91943359 56.90795898 C-25.98502857 52.34206321 -26.06232341 47.77860915 -26.2121582 43.21459961 C-26.33230777 39.53146358 -26.39756905 35.8509456 -26.42597389 32.16600037 C-26.44619309 30.76548529 -26.48568603 29.36510298 -26.54535484 27.9657135 C-26.72711143 23.52351701 -26.67986383 19.53584231 -25.38232422 15.26733398 C-22.13372595 11.74246596 -18.5602685 9.55363926 -14.38232422 7.26733398 C-13.19238138 6.42149032 -12.01453725 5.55789666 -10.85888672 4.66577148 C-9.91787109 3.99803711 -8.97685547 3.33030273 -8.00732422 2.64233398 C-7.05083984 1.94881836 -6.09435547 1.25530273 -5.10888672 0.54077148 C-2.38232422 -0.73266602 -2.38232422 -0.73266602 0 0 Z " fill="#F6AF30" transform="translate(105.38232421875,216.732666015625)"/>
<path d="M0 0 C16.01250986 12.10172674 26.33556514 28.26166631 30 48 C30.3695473 52.77311666 30.35221809 57.51184036 30.29296875 62.296875 C30.28872391 63.61165833 30.28447906 64.92644165 30.28010559 66.28106689 C30.26879051 69.73345875 30.23944324 73.18545647 30.20599365 76.63769531 C30.17500037 80.17768018 30.16153854 83.71773033 30.14648438 87.2578125 C30.1145566 94.17205072 30.06190251 101.08596571 30 108 C24.72 108 19.44 108 14 108 C13.970271 105.92887939 13.970271 105.92887939 13.93994141 103.81591797 C13.86313791 98.63085492 13.77454386 93.4460456 13.68261719 88.26123047 C13.64463309 86.02886002 13.60973053 83.79643471 13.578125 81.56396484 C13.15593268 48.81303657 13.15593268 48.81303657 -3 21 C-12.49021578 12.25307385 -22.65219551 7.3758889 -35.5 6.1875 C-42.59326246 5.42776849 -47.12168798 3.01578688 -52.96875 -0.95703125 C-57.10837158 -3.74700816 -61.48953033 -5.8822174 -66 -8 C-47.86393112 -20.09071258 -16.48245133 -11.19364704 0 0 Z " fill="#D9DBDD" transform="translate(258,44)"/>
<path d="M0 0 C8.25 0 16.5 0 25 0 C25.6551392 12.83097099 26.30768708 25.66206673 26.95575714 38.49339676 C27.25682902 44.45238624 27.55900685 50.41131523 27.86376953 56.37011719 C28.15819929 62.12770329 28.44964898 67.88543342 28.73908997 73.6432724 C28.84966859 75.83278465 28.96129537 78.02224424 29.07402039 80.21164703 C29.2325165 83.29363159 29.38718099 86.37578753 29.54101562 89.45800781 C29.58776932 90.34993835 29.63452301 91.2418689 29.68269348 92.16082764 C30.00822347 98.79906792 30 105.3304105 30 112 C22.08 112 14.16 112 6 112 C4.76055875 93.35563908 3.72299027 74.71309173 2.87756348 56.04669189 C2.30954774 43.57945295 1.6102476 31.13923573 0.609375 18.69824219 C0.52945312 17.68407227 0.44953125 16.66990234 0.3671875 15.625 C0.29612793 14.77164063 0.22506836 13.91828125 0.15185547 13.0390625 C-0.06506667 8.69782978 0 4.34664891 0 0 Z " fill="#D0322F" transform="translate(320,152)"/>
<path d="M0 0 C3.752019 1.14272342 7.37949063 2.49437231 11 4 C8.16769931 7.01055738 5.25839507 9.23257121 1.8125 11.5 C-9.2240041 19.47162713 -15.74056657 30.61751446 -18.61694336 43.83496094 C-20.48602702 55.78860492 -20.45407628 67.80173186 -20.625 79.875 C-20.66326215 82.12371168 -20.70231838 84.37240999 -20.7421875 86.62109375 C-20.83727826 92.08061823 -20.92162982 97.54021095 -21 103 C-26.28 103 -31.56 103 -37 103 C-37.0911102 95.43610169 -37.16417593 87.87241408 -37.20724869 80.30809689 C-37.22794294 76.79397296 -37.25591769 73.28025043 -37.30175781 69.76635742 C-37.68419053 39.63154096 -37.68419053 39.63154096 -33 28 C-32.7023877 27.23115479 -32.40477539 26.46230957 -32.09814453 25.67016602 C-26.15518388 11.75955124 -16.22147643 -2.94748555 0 0 Z " fill="#DADCDE" transform="translate(181,49)"/>
<path d="M0 0 C5.28 0 10.56 0 16 0 C17.97660251 18.29408707 19.03719174 36.63065533 20 55 C20.0689447 56.31508545 20.0689447 56.31508545 20.13928223 57.65673828 C20.43080869 63.24827062 20.71409467 68.8401641 20.98925781 74.43252563 C21.07841182 76.24196315 21.16855012 78.05135249 21.25976562 79.86068726 C21.79711253 90.58920427 22.09382261 101.2573109 22 112 C16.72 112 11.44 112 6 112 C5.92483154 110.56132568 5.84966309 109.12265137 5.7722168 107.64038086 C3.89611403 71.75752956 1.97195337 35.87771535 0 0 Z " fill="#A82A27" transform="translate(304,152)"/>
<path d="M0 0 C0.33 0 0.66 0 1 0 C1 11.55 1 23.1 1 35 C-2.465 33.02 -2.465 33.02 -6 31 C-8.72897167 31.49154083 -8.72897167 31.49154083 -11 33 C-12.32 33.66 -13.64 34.32 -15 35 C-15 23.78 -15 12.56 -15 1 C-13.35 2.32 -11.7 3.64 -10 5 C-5.86469356 5.49623677 -4.51253146 5.34168764 -1 3 C-0.67 2.01 -0.34 1.02 0 0 Z " fill="#DADBDD" transform="translate(111,186)"/>
</svg>
